<svg width="31" height="31" viewBox="0 0 31 31" fill="none" xmlns="http://www.w3.org/2000/svg">
<path d="M23.2943 18.7519C22.4589 18.3196 21.631 17.8732 20.7992 17.4365C20.5662 17.3142 20.3306 17.1959 20.0789 17.1148C19.8361 17.0354 19.6252 17.0853 19.4726 17.2869C19.1657 17.6876 18.8213 18.0559 18.4927 18.438C18.4082 18.5101 18.3312 18.5905 18.2629 18.6779C18.0834 18.8898 17.89 19.0783 17.573 19.0169C17.3054 18.923 17.0546 18.7918 16.8047 18.6631C16.7591 18.6361 16.7143 18.6065 16.667 18.5824C15.3723 17.926 14.2367 16.9983 13.3388 15.8634C12.9911 15.427 12.6907 14.9578 12.3871 14.4927C12.3579 14.4438 12.3301 14.394 12.2993 14.3464C12.1697 14.147 12.0563 13.9434 12.1049 13.6919C12.1006 13.6938 12.0971 13.6964 12.0932 13.6986C12.0968 13.6959 12.1007 13.6937 12.1049 13.6919C12.1537 13.5898 12.2169 13.495 12.2925 13.4105C12.7183 13.0007 13.1421 12.5903 13.4046 12.0481C13.4502 11.9603 13.4763 11.8638 13.4811 11.7652C13.486 11.6666 13.4695 11.568 13.4328 11.4763C13.1133 10.6307 12.8006 9.78262 12.4798 8.93774C12.3826 8.67819 12.3048 8.40932 12.1664 8.16586C12.0281 7.92239 11.8291 7.77252 11.5258 7.78892C11.3803 7.79389 11.2347 7.78485 11.0909 7.76191C10.6123 7.69437 10.1587 7.74261 9.78376 8.07355C9.38357 8.42733 9.02064 8.81552 8.75655 9.28315C8.25202 10.1776 8.08741 11.1341 8.23517 12.1455C8.33655 12.8176 8.54768 13.4687 8.86024 14.0733C8.93315 14.2216 8.99634 14.3756 9.08027 14.5178C9.86769 15.8486 10.7329 17.1229 11.7789 18.2736C13.2147 19.8528 14.8897 21.0839 16.9156 21.8214C17.5452 22.0957 18.1919 22.3296 18.8517 22.5215C19.0815 22.5888 19.3115 22.6656 19.5575 22.6528C19.7404 22.6754 19.9254 22.6754 20.1083 22.6528C20.3397 22.6508 20.5665 22.6061 20.7914 22.5643C21.4272 22.4453 21.9878 22.1523 22.5072 21.7796C22.8241 21.5525 23.1229 21.2971 23.2875 20.9382C23.5071 20.4552 23.6376 19.937 23.6728 19.4083C23.6945 19.0886 23.5707 18.895 23.2943 18.7519Z" fill="#00FF80"/>
<path d="M30.998 15.3823C30.9863 14.7005 30.9999 14.018 30.9451 13.3378C30.905 12.8358 30.7987 12.3434 30.693 11.8513C30.3524 10.2784 29.7542 8.77156 28.9222 7.3908C27.8795 5.64224 26.4938 4.11921 24.8472 2.91199C23.2005 1.70477 21.3265 0.837926 19.3361 0.362835C18.3473 0.123799 17.3333 0.00297831 16.3157 0.0029455C15.7457 0.0029455 15.1754 -0.0086327 14.606 0.0174183C14.2671 0.0331775 13.9256 0.0437908 13.5898 0.0962144C12.5001 0.265385 11.434 0.524286 10.4016 0.912156C7.84008 1.87306 5.58413 3.49651 3.86765 5.61419C2.90175 6.79722 2.12481 8.12058 1.56405 9.53792C1.14139 10.5875 0.843523 11.6824 0.676498 12.8004C0.575199 13.4824 0.514821 14.1697 0.495683 14.8587C0.475269 15.6785 0.549474 16.4929 0.657704 17.3053C0.799957 18.3837 1.08511 19.4257 1.46327 20.4417C1.76172 21.2398 2.13107 22.01 2.56695 22.7432C2.63176 22.8506 2.65477 22.9567 2.61394 23.0796C2.38387 23.7704 2.14699 24.4593 1.91109 25.1486C1.61654 26.0098 1.33041 26.8744 1.03618 27.736C0.868654 28.2277 0.70631 28.7214 0.536836 29.2122C0.370712 29.6933 0.208691 30.1757 0.0507754 30.6595C0.015779 30.7669 -0.0286146 30.882 0.0222598 31.0004H0.0870679C0.274039 30.9431 0.473324 30.9525 0.659972 30.8907C1.70824 30.5427 2.76624 30.2262 3.81775 29.8863C5.26848 29.4171 6.72472 28.9652 8.17577 28.4979C8.24841 28.471 8.32604 28.4599 8.40338 28.4654C8.48071 28.471 8.55594 28.493 8.62392 28.53C9.53663 29.0045 10.4936 29.39 11.4813 29.6811C12.5932 30.0101 13.7408 30.2059 14.8996 30.2642C15.6945 30.3012 16.4936 30.2999 17.2901 30.2166C18.3848 30.1063 19.4646 29.8814 20.5117 29.5457C23.108 28.6991 25.4297 27.1804 27.2375 25.1463C27.879 24.4297 28.4482 23.6522 28.9367 22.8252C29.6405 21.6382 30.1805 20.3629 30.5424 19.0333C30.8664 17.8436 31.0198 16.6145 30.998 15.3823V15.3823ZM26.5388 21.6902C24.558 24.8388 21.7061 26.7956 18.0166 27.4661C14.7762 28.0563 11.7512 27.4304 8.96287 25.6898C8.84848 25.6184 8.75613 25.613 8.63429 25.6519C7.12793 26.1337 5.6206 26.6132 4.1123 27.0905C4.06722 27.1117 4.01666 27.1187 3.96746 27.1104C4.18878 26.4572 4.40523 25.8198 4.62105 25.1807C4.91106 24.3243 5.19849 23.4675 5.49207 22.6126C5.50891 22.5716 5.51419 22.5268 5.50734 22.4831C5.50049 22.4394 5.48176 22.3983 5.45318 22.3643C4.42824 20.926 3.71827 19.3469 3.38159 17.6173C2.73351 14.2905 3.29118 11.1663 5.1515 8.32253C7.05848 5.40579 9.74867 3.53526 13.1884 2.83671C16.9864 2.06483 20.4683 2.86405 23.5369 5.22246C26.0674 7.16632 27.6373 9.73378 28.2093 12.8647C28.7838 16.0085 28.2436 18.9787 26.5388 21.6902Z" fill="#00FF80"/>
</svg>
